<svg width="1600" height="3000" xmlns="http://www.w3.org/2000/svg">
  <!-- Background -->
  <rect width="1600" height="3000" fill="#ffffff" stroke="#000000" stroke-width="2"/>
  
  <!-- Title -->
  <text x="800" y="40" text-anchor="middle" font-family="Arial, sans-serif" font-size="24" font-weight="bold" fill="#000000">Oga Driver Platform - Database Tables Specification</text>
  
  <!-- Table 1: USER -->
  <text x="50" y="80" font-family="Arial, sans-serif" font-size="18" font-weight="bold" fill="#000000">Table 1: USER</text>
  
  <!-- USER Table Header -->
  <rect x="50" y="90" width="150" height="30" fill="#f0f0f0" stroke="#000000" stroke-width="1"/>
  <text x="125" y="110" text-anchor="middle" font-family="Arial, sans-serif" font-size="12" font-weight="bold" fill="#000000">Table name</text>
  
  <rect x="200" y="90" width="150" height="30" fill="#f0f0f0" stroke="#000000" stroke-width="1"/>
  <text x="275" y="110" text-anchor="middle" font-family="Arial, sans-serif" font-size="12" font-weight="bold" fill="#000000">Attribute name</text>
  
  <rect x="350" y="90" width="120" height="30" fill="#f0f0f0" stroke="#000000" stroke-width="1"/>
  <text x="410" y="110" text-anchor="middle" font-family="Arial, sans-serif" font-size="12" font-weight="bold" fill="#000000">Type of data</text>
  
  <rect x="470" y="90" width="100" height="30" fill="#f0f0f0" stroke="#000000" stroke-width="1"/>
  <text x="520" y="110" text-anchor="middle" font-family="Arial, sans-serif" font-size="12" font-weight="bold" fill="#000000">Length of data</text>
  
  <rect x="570" y="90" width="120" height="30" fill="#f0f0f0" stroke="#000000" stroke-width="1"/>
  <text x="630" y="110" text-anchor="middle" font-family="Arial, sans-serif" font-size="12" font-weight="bold" fill="#000000">Type of key</text>
  
  <rect x="690" y="90" width="180" height="30" fill="#f0f0f0" stroke="#000000" stroke-width="1"/>
  <text x="780" y="110" text-anchor="middle" font-family="Arial, sans-serif" font-size="12" font-weight="bold" fill="#000000">Foreign key referenced table</text>
  
  <!-- USER Table Rows -->
  <!-- Row 1 -->
  <rect x="50" y="120" width="150" height="25" fill="#ffffff" stroke="#000000" stroke-width="1"/>
  <text x="125" y="137" text-anchor="middle" font-family="Arial, sans-serif" font-size="11" font-weight="bold" fill="#000000">USER</text>
  
  <rect x="200" y="120" width="150" height="25" fill="#ffffff" stroke="#000000" stroke-width="1"/>
  <text x="275" y="137" text-anchor="middle" font-family="Arial, sans-serif" font-size="11" fill="#000000">id</text>
  
  <rect x="350" y="120" width="120" height="25" fill="#ffffff" stroke="#000000" stroke-width="1"/>
  <text x="410" y="137" text-anchor="middle" font-family="Arial, sans-serif" font-size="11" fill="#000000">UUID</text>
  
  <rect x="470" y="120" width="100" height="25" fill="#ffffff" stroke="#000000" stroke-width="1"/>
  <text x="520" y="137" text-anchor="middle" font-family="Arial, sans-serif" font-size="11" fill="#000000">36</text>
  
  <rect x="570" y="120" width="120" height="25" fill="#ffffff" stroke="#000000" stroke-width="1"/>
  <text x="630" y="137" text-anchor="middle" font-family="Arial, sans-serif" font-size="11" fill="#000000">primary key</text>
  
  <rect x="690" y="120" width="180" height="25" fill="#ffffff" stroke="#000000" stroke-width="1"/>
  
  <!-- Row 2 -->
  <rect x="50" y="145" width="150" height="25" fill="#ffffff" stroke="#000000" stroke-width="1"/>
  
  <rect x="200" y="145" width="150" height="25" fill="#ffffff" stroke="#000000" stroke-width="1"/>
  <text x="275" y="162" text-anchor="middle" font-family="Arial, sans-serif" font-size="11" fill="#000000">username</text>
  
  <rect x="350" y="145" width="120" height="25" fill="#ffffff" stroke="#000000" stroke-width="1"/>
  <text x="410" y="162" text-anchor="middle" font-family="Arial, sans-serif" font-size="11" fill="#000000">varchar</text>
  
  <rect x="470" y="145" width="100" height="25" fill="#ffffff" stroke="#000000" stroke-width="1"/>
  <text x="520" y="162" text-anchor="middle" font-family="Arial, sans-serif" font-size="11" fill="#000000">150</text>
  
  <rect x="570" y="145" width="120" height="25" fill="#ffffff" stroke="#000000" stroke-width="1"/>
  <text x="630" y="162" text-anchor="middle" font-family="Arial, sans-serif" font-size="11" fill="#000000">unique</text>
  
  <rect x="690" y="145" width="180" height="25" fill="#ffffff" stroke="#000000" stroke-width="1"/>
  
  <!-- Row 3 -->
  <rect x="50" y="170" width="150" height="25" fill="#ffffff" stroke="#000000" stroke-width="1"/>
  
  <rect x="200" y="170" width="150" height="25" fill="#ffffff" stroke="#000000" stroke-width="1"/>
  <text x="275" y="187" text-anchor="middle" font-family="Arial, sans-serif" font-size="11" fill="#000000">email</text>
  
  <rect x="350" y="170" width="120" height="25" fill="#ffffff" stroke="#000000" stroke-width="1"/>
  <text x="410" y="187" text-anchor="middle" font-family="Arial, sans-serif" font-size="11" fill="#000000">varchar</text>
  
  <rect x="470" y="170" width="100" height="25" fill="#ffffff" stroke="#000000" stroke-width="1"/>
  <text x="520" y="187" text-anchor="middle" font-family="Arial, sans-serif" font-size="11" fill="#000000">254</text>
  
  <rect x="570" y="170" width="120" height="25" fill="#ffffff" stroke="#000000" stroke-width="1"/>
  <text x="630" y="187" text-anchor="middle" font-family="Arial, sans-serif" font-size="11" fill="#000000">unique</text>
  
  <rect x="690" y="170" width="180" height="25" fill="#ffffff" stroke="#000000" stroke-width="1"/>
  
  <!-- Row 4 -->
  <rect x="50" y="195" width="150" height="25" fill="#ffffff" stroke="#000000" stroke-width="1"/>
  
  <rect x="200" y="195" width="150" height="25" fill="#ffffff" stroke="#000000" stroke-width="1"/>
  <text x="275" y="212" text-anchor="middle" font-family="Arial, sans-serif" font-size="11" fill="#000000">role</text>
  
  <rect x="350" y="195" width="120" height="25" fill="#ffffff" stroke="#000000" stroke-width="1"/>
  <text x="410" y="212" text-anchor="middle" font-family="Arial, sans-serif" font-size="11" fill="#000000">varchar</text>
  
  <rect x="470" y="195" width="100" height="25" fill="#ffffff" stroke="#000000" stroke-width="1"/>
  <text x="520" y="212" text-anchor="middle" font-family="Arial, sans-serif" font-size="11" fill="#000000">50</text>
  
  <rect x="570" y="195" width="120" height="25" fill="#ffffff" stroke="#000000" stroke-width="1"/>
  
  <rect x="690" y="195" width="180" height="25" fill="#ffffff" stroke="#000000" stroke-width="1"/>
  
  <!-- Row 5 -->
  <rect x="50" y="220" width="150" height="25" fill="#ffffff" stroke="#000000" stroke-width="1"/>
  
  <rect x="200" y="220" width="150" height="25" fill="#ffffff" stroke="#000000" stroke-width="1"/>
  <text x="275" y="237" text-anchor="middle" font-family="Arial, sans-serif" font-size="11" fill="#000000">phone_number</text>
  
  <rect x="350" y="220" width="120" height="25" fill="#ffffff" stroke="#000000" stroke-width="1"/>
  <text x="410" y="237" text-anchor="middle" font-family="Arial, sans-serif" font-size="11" fill="#000000">varchar</text>
  
  <rect x="470" y="220" width="100" height="25" fill="#ffffff" stroke="#000000" stroke-width="1"/>
  <text x="520" y="237" text-anchor="middle" font-family="Arial, sans-serif" font-size="11" fill="#000000">15</text>
  
  <rect x="570" y="220" width="120" height="25" fill="#ffffff" stroke="#000000" stroke-width="1"/>
  
  <rect x="690" y="220" width="180" height="25" fill="#ffffff" stroke="#000000" stroke-width="1"/>
  
  <!-- Table 2: VEHICLE -->
  <text x="50" y="290" font-family="Arial, sans-serif" font-size="18" font-weight="bold" fill="#000000">Table 2: VEHICLE</text>
  
  <!-- VEHICLE Table Header -->
  <rect x="50" y="300" width="150" height="30" fill="#f0f0f0" stroke="#000000" stroke-width="1"/>
  <text x="125" y="320" text-anchor="middle" font-family="Arial, sans-serif" font-size="12" font-weight="bold" fill="#000000">Table name</text>
  
  <rect x="200" y="300" width="150" height="30" fill="#f0f0f0" stroke="#000000" stroke-width="1"/>
  <text x="275" y="320" text-anchor="middle" font-family="Arial, sans-serif" font-size="12" font-weight="bold" fill="#000000">Attribute name</text>
  
  <rect x="350" y="300" width="120" height="30" fill="#f0f0f0" stroke="#000000" stroke-width="1"/>
  <text x="410" y="320" text-anchor="middle" font-family="Arial, sans-serif" font-size="12" font-weight="bold" fill="#000000">Type of data</text>
  
  <rect x="470" y="300" width="100" height="30" fill="#f0f0f0" stroke="#000000" stroke-width="1"/>
  <text x="520" y="320" text-anchor="middle" font-family="Arial, sans-serif" font-size="12" font-weight="bold" fill="#000000">Length of data</text>
  
  <rect x="570" y="300" width="120" height="30" fill="#f0f0f0" stroke="#000000" stroke-width="1"/>
  <text x="630" y="320" text-anchor="middle" font-family="Arial, sans-serif" font-size="12" font-weight="bold" fill="#000000">Type of key</text>
  
  <rect x="690" y="300" width="180" height="30" fill="#f0f0f0" stroke="#000000" stroke-width="1"/>
  <text x="780" y="320" text-anchor="middle" font-family="Arial, sans-serif" font-size="12" font-weight="bold" fill="#000000">Foreign key referenced table</text>
  
  <!-- VEHICLE Table Rows -->
  <!-- Row 1 -->
  <rect x="50" y="330" width="150" height="25" fill="#ffffff" stroke="#000000" stroke-width="1"/>
  <text x="125" y="347" text-anchor="middle" font-family="Arial, sans-serif" font-size="11" font-weight="bold" fill="#000000">VEHICLE</text>
  
  <rect x="200" y="330" width="150" height="25" fill="#ffffff" stroke="#000000" stroke-width="1"/>
  <text x="275" y="347" text-anchor="middle" font-family="Arial, sans-serif" font-size="11" fill="#000000">id</text>
  
  <rect x="350" y="330" width="120" height="25" fill="#ffffff" stroke="#000000" stroke-width="1"/>
  <text x="410" y="347" text-anchor="middle" font-family="Arial, sans-serif" font-size="11" fill="#000000">UUID</text>
  
  <rect x="470" y="330" width="100" height="25" fill="#ffffff" stroke="#000000" stroke-width="1"/>
  <text x="520" y="347" text-anchor="middle" font-family="Arial, sans-serif" font-size="11" fill="#000000">36</text>
  
  <rect x="570" y="330" width="120" height="25" fill="#ffffff" stroke="#000000" stroke-width="1"/>
  <text x="630" y="347" text-anchor="middle" font-family="Arial, sans-serif" font-size="11" fill="#000000">primary key</text>
  
  <rect x="690" y="330" width="180" height="25" fill="#ffffff" stroke="#000000" stroke-width="1"/>
  
  <!-- Row 2 -->
  <rect x="50" y="355" width="150" height="25" fill="#ffffff" stroke="#000000" stroke-width="1"/>
  
  <rect x="200" y="355" width="150" height="25" fill="#ffffff" stroke="#000000" stroke-width="1"/>
  <text x="275" y="372" text-anchor="middle" font-family="Arial, sans-serif" font-size="11" fill="#000000">owner_id</text>
  
  <rect x="350" y="355" width="120" height="25" fill="#ffffff" stroke="#000000" stroke-width="1"/>
  <text x="410" y="372" text-anchor="middle" font-family="Arial, sans-serif" font-size="11" fill="#000000">UUID</text>
  
  <rect x="470" y="355" width="100" height="25" fill="#ffffff" stroke="#000000" stroke-width="1"/>
  <text x="520" y="372" text-anchor="middle" font-family="Arial, sans-serif" font-size="11" fill="#000000">36</text>
  
  <rect x="570" y="355" width="120" height="25" fill="#ffffff" stroke="#000000" stroke-width="1"/>
  <text x="630" y="372" text-anchor="middle" font-family="Arial, sans-serif" font-size="11" fill="#000000">foreign key</text>
  
  <rect x="690" y="355" width="180" height="25" fill="#ffffff" stroke="#000000" stroke-width="1"/>
  <text x="780" y="372" text-anchor="middle" font-family="Arial, sans-serif" font-size="11" fill="#000000">USER</text>
  
  <!-- Row 3 -->
  <rect x="50" y="380" width="150" height="25" fill="#ffffff" stroke="#000000" stroke-width="1"/>
  
  <rect x="200" y="380" width="150" height="25" fill="#ffffff" stroke="#000000" stroke-width="1"/>
  <text x="275" y="397" text-anchor="middle" font-family="Arial, sans-serif" font-size="11" fill="#000000">vehicle_type</text>
  
  <rect x="350" y="380" width="120" height="25" fill="#ffffff" stroke="#000000" stroke-width="1"/>
  <text x="410" y="397" text-anchor="middle" font-family="Arial, sans-serif" font-size="11" fill="#000000">varchar</text>
  
  <rect x="470" y="380" width="100" height="25" fill="#ffffff" stroke="#000000" stroke-width="1"/>
  <text x="520" y="397" text-anchor="middle" font-family="Arial, sans-serif" font-size="11" fill="#000000">50</text>
  
  <rect x="570" y="380" width="120" height="25" fill="#ffffff" stroke="#000000" stroke-width="1"/>
  
  <rect x="690" y="380" width="180" height="25" fill="#ffffff" stroke="#000000" stroke-width="1"/>
  
  <!-- Row 4 -->
  <rect x="50" y="405" width="150" height="25" fill="#ffffff" stroke="#000000" stroke-width="1"/>
  
  <rect x="200" y="405" width="150" height="25" fill="#ffffff" stroke="#000000" stroke-width="1"/>
  <text x="275" y="422" text-anchor="middle" font-family="Arial, sans-serif" font-size="11" fill="#000000">registration_number</text>
  
  <rect x="350" y="405" width="120" height="25" fill="#ffffff" stroke="#000000" stroke-width="1"/>
  <text x="410" y="422" text-anchor="middle" font-family="Arial, sans-serif" font-size="11" fill="#000000">varchar</text>
  
  <rect x="470" y="405" width="100" height="25" fill="#ffffff" stroke="#000000" stroke-width="1"/>
  <text x="520" y="422" text-anchor="middle" font-family="Arial, sans-serif" font-size="11" fill="#000000">20</text>
  
  <rect x="570" y="405" width="120" height="25" fill="#ffffff" stroke="#000000" stroke-width="1"/>
  <text x="630" y="422" text-anchor="middle" font-family="Arial, sans-serif" font-size="11" fill="#000000">unique</text>
  
  <rect x="690" y="405" width="180" height="25" fill="#ffffff" stroke="#000000" stroke-width="1"/>
  
  <!-- Row 5 -->
  <rect x="50" y="430" width="150" height="25" fill="#ffffff" stroke="#000000" stroke-width="1"/>
  
  <rect x="200" y="430" width="150" height="25" fill="#ffffff" stroke="#000000" stroke-width="1"/>
  <text x="275" y="447" text-anchor="middle" font-family="Arial, sans-serif" font-size="11" fill="#000000">total_cost</text>
  
  <rect x="350" y="430" width="120" height="25" fill="#ffffff" stroke="#000000" stroke-width="1"/>
  <text x="410" y="447" text-anchor="middle" font-family="Arial, sans-serif" font-size="11" fill="#000000">decimal</text>
  
  <rect x="470" y="430" width="100" height="25" fill="#ffffff" stroke="#000000" stroke-width="1"/>
  <text x="520" y="447" text-anchor="middle" font-family="Arial, sans-serif" font-size="11" fill="#000000">10,2</text>
  
  <rect x="570" y="430" width="120" height="25" fill="#ffffff" stroke="#000000" stroke-width="1"/>
  
  <rect x="690" y="430" width="180" height="25" fill="#ffffff" stroke="#000000" stroke-width="1"/>
  
  <!-- Table 3: PAYMENT -->
  <text x="50" y="500" font-family="Arial, sans-serif" font-size="18" font-weight="bold" fill="#000000">Table 3: PAYMENT</text>
  
  <!-- PAYMENT Table Header -->
  <rect x="50" y="510" width="150" height="30" fill="#f0f0f0" stroke="#000000" stroke-width="1"/>
  <text x="125" y="530" text-anchor="middle" font-family="Arial, sans-serif" font-size="12" font-weight="bold" fill="#000000">Table name</text>
  
  <rect x="200" y="510" width="150" height="30" fill="#f0f0f0" stroke="#000000" stroke-width="1"/>
  <text x="275" y="530" text-anchor="middle" font-family="Arial, sans-serif" font-size="12" font-weight="bold" fill="#000000">Attribute name</text>
  
  <rect x="350" y="510" width="120" height="30" fill="#f0f0f0" stroke="#000000" stroke-width="1"/>
  <text x="410" y="530" text-anchor="middle" font-family="Arial, sans-serif" font-size="12" font-weight="bold" fill="#000000">Type of data</text>
  
  <rect x="470" y="510" width="100" height="30" fill="#f0f0f0" stroke="#000000" stroke-width="1"/>
  <text x="520" y="530" text-anchor="middle" font-family="Arial, sans-serif" font-size="12" font-weight="bold" fill="#000000">Length of data</text>
  
  <rect x="570" y="510" width="120" height="30" fill="#f0f0f0" stroke="#000000" stroke-width="1"/>
  <text x="630" y="530" text-anchor="middle" font-family="Arial, sans-serif" font-size="12" font-weight="bold" fill="#000000">Type of key</text>
  
  <rect x="690" y="510" width="180" height="30" fill="#f0f0f0" stroke="#000000" stroke-width="1"/>
  <text x="780" y="530" text-anchor="middle" font-family="Arial, sans-serif" font-size="12" font-weight="bold" fill="#000000">Foreign key referenced table</text>
  
  <!-- PAYMENT Table Rows -->
  <!-- Row 1 -->
  <rect x="50" y="540" width="150" height="25" fill="#ffffff" stroke="#000000" stroke-width="1"/>
  <text x="125" y="557" text-anchor="middle" font-family="Arial, sans-serif" font-size="11" font-weight="bold" fill="#000000">PAYMENT</text>
  
  <rect x="200" y="540" width="150" height="25" fill="#ffffff" stroke="#000000" stroke-width="1"/>
  <text x="275" y="557" text-anchor="middle" font-family="Arial, sans-serif" font-size="11" fill="#000000">id</text>
  
  <rect x="350" y="540" width="120" height="25" fill="#ffffff" stroke="#000000" stroke-width="1"/>
  <text x="410" y="557" text-anchor="middle" font-family="Arial, sans-serif" font-size="11" fill="#000000">UUID</text>
  
  <rect x="470" y="540" width="100" height="25" fill="#ffffff" stroke="#000000" stroke-width="1"/>
  <text x="520" y="557" text-anchor="middle" font-family="Arial, sans-serif" font-size="11" fill="#000000">36</text>
  
  <rect x="570" y="540" width="120" height="25" fill="#ffffff" stroke="#000000" stroke-width="1"/>
  <text x="630" y="557" text-anchor="middle" font-family="Arial, sans-serif" font-size="11" fill="#000000">primary key</text>
  
  <rect x="690" y="540" width="180" height="25" fill="#ffffff" stroke="#000000" stroke-width="1"/>
  
  <!-- Row 2 -->
  <rect x="50" y="565" width="150" height="25" fill="#ffffff" stroke="#000000" stroke-width="1"/>
  
  <rect x="200" y="565" width="150" height="25" fill="#ffffff" stroke="#000000" stroke-width="1"/>
  <text x="275" y="582" text-anchor="middle" font-family="Arial, sans-serif" font-size="11" fill="#000000">vehicle_id</text>
  
  <rect x="350" y="565" width="120" height="25" fill="#ffffff" stroke="#000000" stroke-width="1"/>
  <text x="410" y="582" text-anchor="middle" font-family="Arial, sans-serif" font-size="11" fill="#000000">UUID</text>
  
  <rect x="470" y="565" width="100" height="25" fill="#ffffff" stroke="#000000" stroke-width="1"/>
  <text x="520" y="582" text-anchor="middle" font-family="Arial, sans-serif" font-size="11" fill="#000000">36</text>
  
  <rect x="570" y="565" width="120" height="25" fill="#ffffff" stroke="#000000" stroke-width="1"/>
  <text x="630" y="582" text-anchor="middle" font-family="Arial, sans-serif" font-size="11" fill="#000000">foreign key</text>
  
  <rect x="690" y="565" width="180" height="25" fill="#ffffff" stroke="#000000" stroke-width="1"/>
  <text x="780" y="582" text-anchor="middle" font-family="Arial, sans-serif" font-size="11" fill="#000000">VEHICLE</text>
  
  <!-- Row 3 -->
  <rect x="50" y="590" width="150" height="25" fill="#ffffff" stroke="#000000" stroke-width="1"/>
  
  <rect x="200" y="590" width="150" height="25" fill="#ffffff" stroke="#000000" stroke-width="1"/>
  <text x="275" y="607" text-anchor="middle" font-family="Arial, sans-serif" font-size="11" fill="#000000">driver_id</text>
  
  <rect x="350" y="590" width="120" height="25" fill="#ffffff" stroke="#000000" stroke-width="1"/>
  <text x="410" y="607" text-anchor="middle" font-family="Arial, sans-serif" font-size="11" fill="#000000">UUID</text>
  
  <rect x="470" y="590" width="100" height="25" fill="#ffffff" stroke="#000000" stroke-width="1"/>
  <text x="520" y="607" text-anchor="middle" font-family="Arial, sans-serif" font-size="11" fill="#000000">36</text>
  
  <rect x="570" y="590" width="120" height="25" fill="#ffffff" stroke="#000000" stroke-width="1"/>
  <text x="630" y="607" text-anchor="middle" font-family="Arial, sans-serif" font-size="11" fill="#000000">foreign key</text>
  
  <rect x="690" y="590" width="180" height="25" fill="#ffffff" stroke="#000000" stroke-width="1"/>
  <text x="780" y="607" text-anchor="middle" font-family="Arial, sans-serif" font-size="11" fill="#000000">USER</text>
  
  <!-- Row 4 -->
  <rect x="50" y="615" width="150" height="25" fill="#ffffff" stroke="#000000" stroke-width="1"/>
  
  <rect x="200" y="615" width="150" height="25" fill="#ffffff" stroke="#000000" stroke-width="1"/>
  <text x="275" y="632" text-anchor="middle" font-family="Arial, sans-serif" font-size="11" fill="#000000">amount</text>
  
  <rect x="350" y="615" width="120" height="25" fill="#ffffff" stroke="#000000" stroke-width="1"/>
  <text x="410" y="632" text-anchor="middle" font-family="Arial, sans-serif" font-size="11" fill="#000000">decimal</text>
  
  <rect x="470" y="615" width="100" height="25" fill="#ffffff" stroke="#000000" stroke-width="1"/>
  <text x="520" y="632" text-anchor="middle" font-family="Arial, sans-serif" font-size="11" fill="#000000">10,2</text>
  
  <rect x="570" y="615" width="120" height="25" fill="#ffffff" stroke="#000000" stroke-width="1"/>
  
  <rect x="690" y="615" width="180" height="25" fill="#ffffff" stroke="#000000" stroke-width="1"/>
  
  <!-- Row 5 -->
  <rect x="50" y="640" width="150" height="25" fill="#ffffff" stroke="#000000" stroke-width="1"/>
  
  <rect x="200" y="640" width="150" height="25" fill="#ffffff" stroke="#000000" stroke-width="1"/>
  <text x="275" y="657" text-anchor="middle" font-family="Arial, sans-serif" font-size="11" fill="#000000">status</text>
  
  <rect x="350" y="640" width="120" height="25" fill="#ffffff" stroke="#000000" stroke-width="1"/>
  <text x="410" y="657" text-anchor="middle" font-family="Arial, sans-serif" font-size="11" fill="#000000">varchar</text>
  
  <rect x="470" y="640" width="100" height="25" fill="#ffffff" stroke="#000000" stroke-width="1"/>
  <text x="520" y="657" text-anchor="middle" font-family="Arial, sans-serif" font-size="11" fill="#000000">50</text>
  
  <rect x="570" y="640" width="120" height="25" fill="#ffffff" stroke="#000000" stroke-width="1"/>
  
  <rect x="690" y="640" width="180" height="25" fill="#ffffff" stroke="#000000" stroke-width="1"/>
  
  <!-- Table 4: DRIVER_PROFILE -->
  <text x="50" y="710" font-family="Arial, sans-serif" font-size="18" font-weight="bold" fill="#000000">Table 4: DRIVER_PROFILE</text>
  
  <!-- DRIVER_PROFILE Table Header -->
  <rect x="50" y="720" width="150" height="30" fill="#f0f0f0" stroke="#000000" stroke-width="1"/>
  <text x="125" y="740" text-anchor="middle" font-family="Arial, sans-serif" font-size="12" font-weight="bold" fill="#000000">Table name</text>
  
  <rect x="200" y="720" width="150" height="30" fill="#f0f0f0" stroke="#000000" stroke-width="1"/>
  <text x="275" y="740" text-anchor="middle" font-family="Arial, sans-serif" font-size="12" font-weight="bold" fill="#000000">Attribute name</text>
  
  <rect x="350" y="720" width="120" height="30" fill="#f0f0f0" stroke="#000000" stroke-width="1"/>
  <text x="410" y="740" text-anchor="middle" font-family="Arial, sans-serif" font-size="12" font-weight="bold" fill="#000000">Type of data</text>
  
  <rect x="470" y="720" width="100" height="30" fill="#f0f0f0" stroke="#000000" stroke-width="1"/>
  <text x="520" y="740" text-anchor="middle" font-family="Arial, sans-serif" font-size="12" font-weight="bold" fill="#000000">Length of data</text>
  
  <rect x="570" y="720" width="120" height="30" fill="#f0f0f0" stroke="#000000" stroke-width="1"/>
  <text x="630" y="740" text-anchor="middle" font-family="Arial, sans-serif" font-size="12" font-weight="bold" fill="#000000">Type of key</text>
  
  <rect x="690" y="720" width="180" height="30" fill="#f0f0f0" stroke="#000000" stroke-width="1"/>
  <text x="780" y="740" text-anchor="middle" font-family="Arial, sans-serif" font-size="12" font-weight="bold" fill="#000000">Foreign key referenced table</text>
  
  <!-- DRIVER_PROFILE Table Rows -->
  <!-- Row 1 -->
  <rect x="50" y="750" width="150" height="25" fill="#ffffff" stroke="#000000" stroke-width="1"/>
  <text x="125" y="767" text-anchor="middle" font-family="Arial, sans-serif" font-size="11" font-weight="bold" fill="#000000">DRIVER_PROFILE</text>
  
  <rect x="200" y="750" width="150" height="25" fill="#ffffff" stroke="#000000" stroke-width="1"/>
  <text x="275" y="767" text-anchor="middle" font-family="Arial, sans-serif" font-size="11" fill="#000000">id</text>
  
  <rect x="350" y="750" width="120" height="25" fill="#ffffff" stroke="#000000" stroke-width="1"/>
  <text x="410" y="767" text-anchor="middle" font-family="Arial, sans-serif" font-size="11" fill="#000000">UUID</text>
  
  <rect x="470" y="750" width="100" height="25" fill="#ffffff" stroke="#000000" stroke-width="1"/>
  <text x="520" y="767" text-anchor="middle" font-family="Arial, sans-serif" font-size="11" fill="#000000">36</text>
  
  <rect x="570" y="750" width="120" height="25" fill="#ffffff" stroke="#000000" stroke-width="1"/>
  <text x="630" y="767" text-anchor="middle" font-family="Arial, sans-serif" font-size="11" fill="#000000">primary key</text>
  
  <rect x="690" y="750" width="180" height="25" fill="#ffffff" stroke="#000000" stroke-width="1"/>
  
  <!-- Row 2 -->
  <rect x="50" y="775" width="150" height="25" fill="#ffffff" stroke="#000000" stroke-width="1"/>
  
  <rect x="200" y="775" width="150" height="25" fill="#ffffff" stroke="#000000" stroke-width="1"/>
  <text x="275" y="792" text-anchor="middle" font-family="Arial, sans-serif" font-size="11" fill="#000000">user_id</text>
  
  <rect x="350" y="775" width="120" height="25" fill="#ffffff" stroke="#000000" stroke-width="1"/>
  <text x="410" y="792" text-anchor="middle" font-family="Arial, sans-serif" font-size="11" fill="#000000">UUID</text>
  
  <rect x="470" y="775" width="100" height="25" fill="#ffffff" stroke="#000000" stroke-width="1"/>
  <text x="520" y="792" text-anchor="middle" font-family="Arial, sans-serif" font-size="11" fill="#000000">36</text>
  
  <rect x="570" y="775" width="120" height="25" fill="#ffffff" stroke="#000000" stroke-width="1"/>
  <text x="630" y="792" text-anchor="middle" font-family="Arial, sans-serif" font-size="11" fill="#000000">foreign key</text>
  
  <rect x="690" y="775" width="180" height="25" fill="#ffffff" stroke="#000000" stroke-width="1"/>
  <text x="780" y="792" text-anchor="middle" font-family="Arial, sans-serif" font-size="11" fill="#000000">USER</text>
  
  <!-- Row 3 -->
  <rect x="50" y="800" width="150" height="25" fill="#ffffff" stroke="#000000" stroke-width="1"/>
  
  <rect x="200" y="800" width="150" height="25" fill="#ffffff" stroke="#000000" stroke-width="1"/>
  <text x="275" y="817" text-anchor="middle" font-family="Arial, sans-serif" font-size="11" fill="#000000">date_of_birth</text>
  
  <rect x="350" y="800" width="120" height="25" fill="#ffffff" stroke="#000000" stroke-width="1"/>
  <text x="410" y="817" text-anchor="middle" font-family="Arial, sans-serif" font-size="11" fill="#000000">date</text>
  
  <rect x="470" y="800" width="100" height="25" fill="#ffffff" stroke="#000000" stroke-width="1"/>
  
  <rect x="570" y="800" width="120" height="25" fill="#ffffff" stroke="#000000" stroke-width="1"/>
  
  <rect x="690" y="800" width="180" height="25" fill="#ffffff" stroke="#000000" stroke-width="1"/>
  
  <!-- Row 4 -->
  <rect x="50" y="825" width="150" height="25" fill="#ffffff" stroke="#000000" stroke-width="1"/>
  
  <rect x="200" y="825" width="150" height="25" fill="#ffffff" stroke="#000000" stroke-width="1"/>
  <text x="275" y="842" text-anchor="middle" font-family="Arial, sans-serif" font-size="11" fill="#000000">license_number</text>
  
  <rect x="350" y="825" width="120" height="25" fill="#ffffff" stroke="#000000" stroke-width="1"/>
  <text x="410" y="842" text-anchor="middle" font-family="Arial, sans-serif" font-size="11" fill="#000000">varchar</text>
  
  <rect x="470" y="825" width="100" height="25" fill="#ffffff" stroke="#000000" stroke-width="1"/>
  <text x="520" y="842" text-anchor="middle" font-family="Arial, sans-serif" font-size="11" fill="#000000">50</text>
  
  <rect x="570" y="825" width="120" height="25" fill="#ffffff" stroke="#000000" stroke-width="1"/>
  
  <rect x="690" y="825" width="180" height="25" fill="#ffffff" stroke="#000000" stroke-width="1"/>
  
  <!-- Row 5 -->
  <rect x="50" y="850" width="150" height="25" fill="#ffffff" stroke="#000000" stroke-width="1"/>
  
  <rect x="200" y="850" width="150" height="25" fill="#ffffff" stroke="#000000" stroke-width="1"/>
  <text x="275" y="867" text-anchor="middle" font-family="Arial, sans-serif" font-size="11" fill="#000000">address</text>
  
  <rect x="350" y="850" width="120" height="25" fill="#ffffff" stroke="#000000" stroke-width="1"/>
  <text x="410" y="867" text-anchor="middle" font-family="Arial, sans-serif" font-size="11" fill="#000000">text</text>
  
  <rect x="470" y="850" width="100" height="25" fill="#ffffff" stroke="#000000" stroke-width="1"/>
  <text x="520" y="867" text-anchor="middle" font-family="Arial, sans-serif" font-size="11" fill="#000000">500</text>
  
  <rect x="570" y="850" width="120" height="25" fill="#ffffff" stroke="#000000" stroke-width="1"/>
  
  <rect x="690" y="850" width="180" height="25" fill="#ffffff" stroke="#000000" stroke-width="1"/>
  
  <!-- Additional Tables Summary -->
  <text x="50" y="920" font-family="Arial, sans-serif" font-size="18" font-weight="bold" fill="#000000">Additional Tables Summary</text>
  
  <rect x="50" y="940" width="1500" height="400" fill="#ffffff" stroke="#000000" stroke-width="2" rx="8"/>
  
  <text x="70" y="970" font-family="Arial, sans-serif" font-size="14" font-weight="bold" fill="#000000">Complete Database Schema includes:</text>
  
  <text x="70" y="1000" font-family="Arial, sans-serif" font-size="12" fill="#000000">5. DRIVER_APPLICATION - Driver applications for vehicles with status tracking</text>
  <text x="70" y="1020" font-family="Arial, sans-serif" font-size="12" fill="#000000">6. VEHICLE_DOCUMENT - Vehicle-related documents (registration, insurance, etc.)</text>
  <text x="70" y="1040" font-family="Arial, sans-serif" font-size="12" fill="#000000">7. DRIVER_DOCUMENT - Driver-related documents (license, ID, passport)</text>
  <text x="70" y="1060" font-family="Arial, sans-serif" font-size="12" fill="#000000">8. FINANCIAL_REPORT - Monthly financial reports for vehicle owners</text>
  <text x="70" y="1080" font-family="Arial, sans-serif" font-size="12" fill="#000000">9. NOTIFICATION - System notifications for users</text>
  <text x="70" y="1100" font-family="Arial, sans-serif" font-size="12" fill="#000000">10. ACTIVITY_LOG - User activity tracking and audit trail</text>
  <text x="70" y="1120" font-family="Arial, sans-serif" font-size="12" fill="#000000">11. SYSTEM_SETTINGS - Application configuration and settings</text>
  <text x="70" y="1140" font-family="Arial, sans-serif" font-size="12" fill="#000000">12. VEHICLE_MAINTENANCE - Vehicle maintenance records and scheduling</text>
  
  <text x="70" y="1180" font-family="Arial, sans-serif" font-size="14" font-weight="bold" fill="#000000">Key Relationships:</text>
  
  <text x="70" y="1210" font-family="Arial, sans-serif" font-size="12" fill="#000000">• USER (Owner) → VEHICLE (One-to-Many)</text>
  <text x="70" y="1230" font-family="Arial, sans-serif" font-size="12" fill="#000000">• USER (Driver) → VEHICLE (One-to-One assignment)</text>
  <text x="70" y="1250" font-family="Arial, sans-serif" font-size="12" fill="#000000">• VEHICLE → PAYMENT (One-to-Many)</text>
  <text x="70" y="1270" font-family="Arial, sans-serif" font-size="12" fill="#000000">• USER → DRIVER_PROFILE (One-to-One)</text>
  <text x="70" y="1290" font-family="Arial, sans-serif" font-size="12" fill="#000000">• USER → DRIVER_APPLICATION (One-to-Many)</text>
  <text x="70" y="1310" font-family="Arial, sans-serif" font-size="12" fill="#000000">• VEHICLE → DRIVER_APPLICATION (One-to-Many)</text>
  
  <!-- Data Types Legend -->
  <text x="50" y="1380" font-family="Arial, sans-serif" font-size="18" font-weight="bold" fill="#000000">Data Types Legend</text>
  
  <rect x="50" y="1400" width="1500" height="200" fill="#f9f9f9" stroke="#000000" stroke-width="1" rx="8"/>
  
  <text x="70" y="1430" font-family="Arial, sans-serif" font-size="12" font-weight="bold" fill="#000000">UUID:</text>
  <text x="130" y="1430" font-family="Arial, sans-serif" font-size="12" fill="#000000">Universally Unique Identifier (36 characters)</text>
  
  <text x="70" y="1450" font-family="Arial, sans-serif" font-size="12" font-weight="bold" fill="#000000">varchar(n):</text>
  <text x="150" y="1450" font-family="Arial, sans-serif" font-size="12" fill="#000000">Variable character string with maximum length n</text>
  
  <text x="70" y="1470" font-family="Arial, sans-serif" font-size="12" font-weight="bold" fill="#000000">decimal(m,d):</text>
  <text x="170" y="1470" font-family="Arial, sans-serif" font-size="12" fill="#000000">Decimal number with m total digits and d decimal places</text>
  
  <text x="70" y="1490" font-family="Arial, sans-serif" font-size="12" font-weight="bold" fill="#000000">text:</text>
  <text x="110" y="1490" font-family="Arial, sans-serif" font-size="12" fill="#000000">Large text field for longer content</text>
  
  <text x="70" y="1510" font-family="Arial, sans-serif" font-size="12" font-weight="bold" fill="#000000">boolean:</text>
  <text x="130" y="1510" font-family="Arial, sans-serif" font-size="12" fill="#000000">True/False value</text>
  
  <text x="70" y="1530" font-family="Arial, sans-serif" font-size="12" font-weight="bold" fill="#000000">date:</text>
  <text x="110" y="1530" font-family="Arial, sans-serif" font-size="12" fill="#000000">Date value (YYYY-MM-DD)</text>
  
  <text x="70" y="1550" font-family="Arial, sans-serif" font-size="12" font-weight="bold" fill="#000000">datetime:</text>
  <text x="140" y="1550" font-family="Arial, sans-serif" font-size="12" fill="#000000">Date and time value (YYYY-MM-DD HH:MM:SS)</text>
  
  <text x="70" y="1570" font-family="Arial, sans-serif" font-size="12" font-weight="bold" fill="#000000">integer:</text>
  <text x="130" y="1570" font-family="Arial, sans-serif" font-size="12" fill="#000000">Whole number (typically 32-bit)</text>
</svg>